<mxfile host="app.diagrams.net" modified="2022-08-11T08:12:36.562Z" agent="5.0 (Windows NT 10.0; Win64; x64) AppleWebKit/537.36 (KHTML, like Gecko) Chrome/104.0.0.0 Safari/537.36" etag="vd8o-cd6J07QVNRvRhx6" version="20.0.1" type="github">
  <diagram id="2lFJCwXeKW4iRGSq4QlS" name="第 1 页">
    <mxGraphModel dx="1422" dy="706" grid="1" gridSize="10" guides="1" tooltips="1" connect="1" arrows="1" fold="1" page="1" pageScale="1" pageWidth="827" pageHeight="1169" math="0" shadow="0">
      <root>
        <mxCell id="0" />
        <mxCell id="1" parent="0" />
        <mxCell id="esHo3eiN2Xfje8E4uvOA-1" value="" style="rounded=1;whiteSpace=wrap;html=1;fillColor=#dae8fc;strokeColor=#6c8ebf;" vertex="1" parent="1">
          <mxGeometry x="330" y="70" width="470" height="450" as="geometry" />
        </mxCell>
        <mxCell id="esHo3eiN2Xfje8E4uvOA-2" value="" style="endArrow=none;html=1;rounded=0;exitX=0.004;exitY=0.104;exitDx=0;exitDy=0;exitPerimeter=0;entryX=0.998;entryY=0.098;entryDx=0;entryDy=0;entryPerimeter=0;" edge="1" parent="1" source="esHo3eiN2Xfje8E4uvOA-1" target="esHo3eiN2Xfje8E4uvOA-1">
          <mxGeometry width="50" height="50" relative="1" as="geometry">
            <mxPoint x="300" y="150" as="sourcePoint" />
            <mxPoint x="350" y="100" as="targetPoint" />
          </mxGeometry>
        </mxCell>
        <mxCell id="esHo3eiN2Xfje8E4uvOA-4" value="ais-server" style="text;html=1;strokeColor=none;fillColor=none;align=center;verticalAlign=middle;whiteSpace=wrap;rounded=0;" vertex="1" parent="1">
          <mxGeometry x="535" y="80" width="60" height="30" as="geometry" />
        </mxCell>
        <mxCell id="esHo3eiN2Xfje8E4uvOA-5" value="socket" style="rounded=0;whiteSpace=wrap;html=1;fillColor=#d5e8d4;strokeColor=#82b366;" vertex="1" parent="1">
          <mxGeometry x="350" y="150" width="100" height="50" as="geometry" />
        </mxCell>
        <mxCell id="esHo3eiN2Xfje8E4uvOA-6" value="" style="rounded=0;whiteSpace=wrap;html=1;fillColor=#6d8764;fontColor=#ffffff;strokeColor=#3A5431;" vertex="1" parent="1">
          <mxGeometry x="120" y="127.5" width="180" height="95" as="geometry" />
        </mxCell>
        <mxCell id="esHo3eiN2Xfje8E4uvOA-7" value="ais-client-api" style="rounded=0;whiteSpace=wrap;html=1;fillColor=#d5e8d4;strokeColor=#82b366;" vertex="1" parent="1">
          <mxGeometry x="220" y="161.25" width="70" height="45" as="geometry" />
        </mxCell>
        <mxCell id="esHo3eiN2Xfje8E4uvOA-8" value="" style="endArrow=classic;html=1;rounded=0;exitX=1;exitY=0.5;exitDx=0;exitDy=0;entryX=0;entryY=0.5;entryDx=0;entryDy=0;startArrow=classic;startFill=1;" edge="1" parent="1" source="esHo3eiN2Xfje8E4uvOA-6" target="esHo3eiN2Xfje8E4uvOA-5">
          <mxGeometry width="50" height="50" relative="1" as="geometry">
            <mxPoint x="300" y="210" as="sourcePoint" />
            <mxPoint x="350" y="160" as="targetPoint" />
          </mxGeometry>
        </mxCell>
        <mxCell id="esHo3eiN2Xfje8E4uvOA-11" value="drm api" style="rounded=0;whiteSpace=wrap;html=1;fillColor=#e3c800;fontColor=#000000;strokeColor=#B09500;" vertex="1" parent="1">
          <mxGeometry x="130" y="161.25" width="70" height="42.5" as="geometry" />
        </mxCell>
        <mxCell id="esHo3eiN2Xfje8E4uvOA-12" value="rvc app" style="text;html=1;strokeColor=none;fillColor=none;align=center;verticalAlign=middle;whiteSpace=wrap;rounded=0;" vertex="1" parent="1">
          <mxGeometry x="195" y="131.25" width="60" height="30" as="geometry" />
        </mxCell>
        <mxCell id="esHo3eiN2Xfje8E4uvOA-13" value="" style="rounded=0;whiteSpace=wrap;html=1;fillColor=#6d8764;strokeColor=#3A5431;fontColor=#ffffff;" vertex="1" parent="1">
          <mxGeometry x="120" y="300" width="180" height="80" as="geometry" />
        </mxCell>
        <mxCell id="esHo3eiN2Xfje8E4uvOA-14" value="ais-client-test app" style="text;html=1;strokeColor=none;fillColor=none;align=center;verticalAlign=middle;whiteSpace=wrap;rounded=0;" vertex="1" parent="1">
          <mxGeometry x="157.5" y="300" width="110" height="30" as="geometry" />
        </mxCell>
        <mxCell id="esHo3eiN2Xfje8E4uvOA-15" value="ais-client-api" style="rounded=0;whiteSpace=wrap;html=1;fillColor=#d5e8d4;strokeColor=#82b366;" vertex="1" parent="1">
          <mxGeometry x="175" y="330" width="75" height="45" as="geometry" />
        </mxCell>
        <mxCell id="esHo3eiN2Xfje8E4uvOA-16" value="" style="endArrow=classic;startArrow=classic;html=1;rounded=0;entryX=0;entryY=0.75;entryDx=0;entryDy=0;exitX=1;exitY=0.5;exitDx=0;exitDy=0;" edge="1" parent="1" source="esHo3eiN2Xfje8E4uvOA-13" target="esHo3eiN2Xfje8E4uvOA-5">
          <mxGeometry width="50" height="50" relative="1" as="geometry">
            <mxPoint x="300" y="233.75" as="sourcePoint" />
            <mxPoint x="370.71067811865476" y="183.75" as="targetPoint" />
            <Array as="points">
              <mxPoint x="320" y="340" />
              <mxPoint x="320" y="188" />
            </Array>
          </mxGeometry>
        </mxCell>
      </root>
    </mxGraphModel>
  </diagram>
</mxfile>
